# xmcd CD database file
#
# Track frame offsets:
#	150
#	25147
#	56524
#	80271
#	110708
#	142049
#	165250
#	180164
#	211730
#	238081
#	265571
#	296669
#	323659
#
# Disc length: 4620 seconds
#
# Revision: 0
# Processed by: cddbd v1.5.1PL2 Copyright (c) Steve Scherf et al.
# Submitted via: CDex 1.51
#
DISCID=a7120a0d
DTITLE=Varios - Super Jazz Nova vida vol.2
DYEAR=2005
DGENRE=Jazz
TTITLE0=Bruno E. - Ventos Do Outono
TTITLE1=Ed Motta - Que Bom Voltar (Bruno E. Remix)
TTITLE2=Patricia Marx - La No Mar (Bruno E. Dub Mix)
TTITLE3=Bruno E. - Carino (Nordestino Remix)
TTITLE4=Max De Castro - A Historia Da Morena Nua Que Abalou As Estruturas Do Esplendor Do Carnaval (Anderson Soares Remix)
TTITLE5=Banda De Pífanos De Caruaru - Jackson, O Rei Do Pandeiro (Bruno E. O Discurso Remix)
TTITLE6=Bruno E. - Dado (Nu Era Remix)
TTITLE7=Bruno E. - Dado (Bruno E. Alma Remix)
TTITLE8=Bruno E. Feat Xantone Blacq - Welcome Home (Alpha 5 Sessions Remix)
TTITLE9=Nação Zumbi - Mormaco (Bruno E. O Discurso Remix)
TTITLE10=Patricia Marx - Recomecar (Alma Remix)
TTITLE11=Wilson Simoninha - Happy-Hour A Beira Mar (Broken Sessions Remix)
TTITLE12=Patricia Marx - Lotta Luck (2nd Take)
EXTD=YEAR: 2005
EXTT0=
EXTT1=
EXTT2=
EXTT3=
EXTT4=
EXTT5=
EXTT6=
EXTT7=
EXTT8=
EXTT9=
EXTT10=
EXTT11=
EXTT12=
PLAYORDER=
